# xmcd
#
# Track frame offsets:
#	150
#	16431
#	35298
#	50213
#	62488
#	85631
#	110621
#	135916
#	154363
#	166141
#	181783
#	202401
#	220731
#	235343
#	256966
#	282551
#	295456
#	321182
#
# Disc length: 4508
#
# Revision: 2
# Processed by: cddbd v1.5.1PL0 Copyright (c) Steve Scherf et al.
# Submitted via: CDex 1.51
# Normalized: r1:TDELIM( - )
#
DISCID=0b119a12
DTITLE=Various Artist - Rendez-Vous On The Jazz Boulevard CD 2
DYEAR=2003
DGENRE=Jazz
TTITLE0=Mary Coughlan - Heartbreak Hotel
TTITLE1=Natalie Cole - Ask A Woman Who Knows
TTITLE2=Laura Fygi - What A Difference A Day Makes
TTITLE3=Teri Thornton - I Believe In You
TTITLE4=Jeri Brown - Who's been loving you?
TTITLE5=Nelli Rees - Small Black Dress
TTITLE6=Anna Caram - Mas Que Nada
TTITLE7=Anne Ducros - Song Bird
TTITLE8=Anna Maria Jopek - Oczy Przezroczyste
TTITLE9=Pamela Morgan - Backseat
TTITLE10=Jacqui Dankworth - Blue Moon
TTITLE11=Jane Monheit - Hit The Road To Dreamland
TTITLE12=Silje Nergaard - Let There Be Love
TTITLE13=Melisa Walker - Nothing Ever Changes My Love For You
TTITLE14=Stacey Kent - Day In Day Out
TTITLE15=Clare Teal - Messin' With Fire
TTITLE16=Carmen Cuesta - Walk
TTITLE17=Blake feat. Harley Loudon - This Guy's On Love With You
EXTD=YEAR: 2003
EXTT0=
EXTT1=
EXTT2=
EXTT3=
EXTT4=
EXTT5=
EXTT6=
EXTT7=
EXTT8=
EXTT9=
EXTT10=
EXTT11=
EXTT12=
EXTT13=
EXTT14=
EXTT15=
EXTT16=
EXTT17=
PLAYORDER=
